<svg width="18" height="18" viewBox="0 0 18 18" fill="none" xmlns="http://www.w3.org/2000/svg">
<g clip-path="url(#clip0_334_6100)">
<path d="M7.7131 2.43304C8.4141 1.69918 9.5859 1.69918 10.2869 2.43304C10.9237 3.09974 11.8118 3.46759 12.7336 3.44648C13.7482 3.42324 14.5768 4.25183 14.5535 5.26643C14.5324 6.18818 14.9003 7.07625 15.567 7.7131C16.3008 8.4141 16.3008 9.5859 15.567 10.2869C14.9003 10.9237 14.5324 11.8118 14.5535 12.7336C14.5768 13.7482 13.7482 14.5768 12.7336 14.5535C11.8118 14.5324 10.9237 14.9003 10.2869 15.567C9.5859 16.3008 8.4141 16.3008 7.7131 15.567C7.07625 14.9003 6.18818 14.5324 5.26643 14.5535C4.25183 14.5768 3.42324 13.7482 3.44648 12.7336C3.46759 11.8118 3.09974 10.9237 2.43304 10.2869C1.69918 9.5859 1.69918 8.4141 2.43304 7.7131C3.09974 7.07625 3.46759 6.18819 3.44648 5.26643C3.42324 4.25183 4.25183 3.42324 5.26643 3.44648C6.18819 3.46759 7.07625 3.09974 7.7131 2.43304Z" stroke="#F1FCFB" stroke-width="1.5"/>
<path d="M12.1516 7.19995L8.46832 10.8832C8.32432 11.0272 8.09427 11.0376 7.93783 10.9073L5.85156 9.1687" stroke="#F1FCFB" stroke-width="1.5" stroke-linecap="round" stroke-linejoin="round"/>
</g>
<defs>
<clipPath id="clip0_334_6100">
<rect width="18" height="18" fill="white"/>
</clipPath>
</defs>
</svg>
