<svg width="18" height="18" viewBox="0 0 18 18" fill="none" xmlns="http://www.w3.org/2000/svg">
<g clip-path="url(#clip0_334_5208)">
<path d="M7.17076 1.91499C8.16718 0.871858 9.83282 0.871858 10.8292 1.91499C11.3204 2.42923 12.0054 2.71296 12.7164 2.69668C14.1586 2.66365 15.3364 3.84143 15.3033 5.28361C15.287 5.99457 15.5708 6.67955 16.085 7.17076C17.1281 8.16718 17.1281 9.83282 16.085 10.8292C15.5708 11.3204 15.287 12.0054 15.3033 12.7164C15.3364 14.1586 14.1586 15.3364 12.7164 15.3033C12.0054 15.287 11.3204 15.5708 10.8292 16.085C9.83282 17.1281 8.16718 17.1281 7.17076 16.085C6.67955 15.5708 5.99457 15.287 5.28361 15.3033C3.84143 15.3364 2.66365 14.1586 2.69668 12.7164C2.71296 12.0054 2.42923 11.3204 1.91499 10.8292C0.871858 9.83282 0.871858 8.16718 1.91499 7.17076C2.42923 6.67955 2.71296 5.99457 2.69668 5.28361C2.66365 3.84142 3.84142 2.66365 5.28361 2.69668C5.99457 2.71296 6.67955 2.42923 7.17076 1.91499Z" fill="#65B3AE"/>
<path d="M12.1516 7.19995L8.46832 10.8832C8.32432 11.0272 8.09427 11.0376 7.93783 10.9073L5.85156 9.1687" stroke="white" stroke-width="1.5" stroke-linecap="round" stroke-linejoin="round"/>
</g>
<defs>
<clipPath id="clip0_334_5208">
<rect width="18" height="18" fill="white"/>
</clipPath>
</defs>
</svg>
