<svg width="32" height="32" viewBox="0 0 32 32" fill="none" xmlns="http://www.w3.org/2000/svg">
<path d="M6.58568 11.2208L1.73344 8.75031C1.35389 9.49603 1.03065 10.2778 0.773438 11.0742L5.9546 12.7495C6.12391 12.2257 6.33617 11.7117 6.58609 11.2212L6.58568 11.2208Z" fill="black"/>
<path d="M10.7082 6.86701L13.3958 11.4977C13.7883 11.27 14.2084 11.0951 14.6454 10.9776L13.2544 5.80696C13.6085 5.71178 13.9682 5.63319 14.3299 5.57608L13.4752 0.198059C12.6485 0.329299 11.827 0.527375 11.0331 0.78621L12.6951 5.87988C12.1664 6.05243 11.6516 6.26671 11.1558 6.52028L8.71288 1.75188C7.96999 2.13264 7.25141 2.57497 6.57617 3.06793L9.78629 7.4661C10.082 7.25061 10.3911 7.05091 10.7078 6.86661L10.7082 6.86701Z" fill="black"/>
<path d="M25.1295 10.703L20.5005 13.393C20.7285 13.7851 20.9035 14.2056 21.0214 14.6418L26.1916 13.2484C26.2868 13.6024 26.3654 13.9617 26.4229 14.323L31.8001 13.4667C31.6685 12.6404 31.47 11.8185 31.2104 11.0242L26.1175 12.6894C25.9445 12.1608 25.7303 11.6464 25.4763 11.1506L30.2431 8.7044C29.8623 7.96232 29.4192 7.24374 28.9262 6.56891L24.5292 9.78106C24.7451 10.0768 24.9448 10.3854 25.1291 10.7026L25.1295 10.703Z" fill="black"/>
<path d="M23.242 1.72966C22.4954 1.35052 21.7137 1.02768 20.9181 0.770874L19.2456 5.95284C19.7689 6.12175 20.2834 6.33401 20.7747 6.58353L23.242 1.72925V1.72966Z" fill="black"/>
<path d="M21.3092 6.77196L18.5908 11.4897C18.9845 11.7166 19.3475 11.9944 19.6703 12.3161L27.2944 4.66604C26.703 4.07667 26.0606 3.52943 25.3849 3.03931L22.2404 7.37591C21.9407 7.1588 21.6304 6.95667 21.3096 6.77156L21.3092 6.77196Z" fill="black"/>
<path d="M6.77514 10.6859L11.4917 13.4071C11.7185 13.0138 11.9972 12.6505 12.3192 12.3272L4.67246 4.70032C4.08269 5.29171 3.53505 5.93373 3.04492 6.60897L7.3799 9.7555C7.16279 10.0548 6.96026 10.3651 6.77514 10.6859Z" fill="black"/>
<path d="M17.6505 5.48415L18.4732 0.19038C17.6602 0.0639999 16.8282 0 15.9999 0H15.9873V10.8006H15.9999C16.4552 10.8006 16.9056 10.8589 17.339 10.974L18.7357 5.71098C18.3784 5.6162 18.0163 5.54126 17.6505 5.48415V5.48415Z" fill="black"/>
<path d="M10.9744 14.6587L5.7122 13.2584C5.61701 13.6156 5.54167 13.9778 5.48455 14.3435L0.191595 13.5184C0.064405 14.3342 0 15.1694 0 16.0002H10.8006C10.8006 15.5441 10.8593 15.0925 10.9748 14.6587H10.9744Z" fill="black"/>
<path d="M25.414 20.7793L30.2662 23.2498C30.6458 22.5041 30.969 21.7223 31.2262 20.9259L26.0451 19.2506C25.8757 19.7744 25.6635 20.2884 25.4136 20.7789L25.414 20.7793Z" fill="black"/>
<path d="M21.2922 25.1326L18.6046 20.5019C18.2121 20.7295 17.792 20.9045 17.355 21.022L18.746 26.1926C18.3915 26.2878 18.0322 26.3664 17.6705 26.4235L18.5248 31.8011C19.3515 31.6699 20.173 31.4718 20.9669 31.213L19.305 26.1193C19.834 25.9467 20.3484 25.7325 20.8442 25.4789L23.2871 30.2473C24.03 29.8665 24.7486 29.4242 25.4238 28.9312L22.2137 24.5331C21.918 24.7486 21.609 24.9483 21.2922 25.1326V25.1326Z" fill="black"/>
<path d="M6.87077 21.2972L11.5002 18.6071C11.2722 18.215 11.0972 17.7946 10.9793 17.3583L5.8091 18.7518C5.71391 18.3977 5.63533 18.0384 5.57781 17.6771L0.200195 18.5334C0.331841 19.3598 0.530321 20.1816 0.789967 20.976L5.88282 19.3107C6.05578 19.8393 6.27006 20.3538 6.52404 20.8496L1.75726 23.2957C2.13802 24.0378 2.58115 24.7564 3.07412 25.4312L7.47107 22.2191C7.25517 21.9234 7.05548 21.6147 6.87117 21.2976L6.87077 21.2972Z" fill="black"/>
<path d="M8.75781 30.2704C9.50434 30.6496 10.2861 30.9724 11.0817 31.2292L12.7542 26.0472C12.2308 25.8783 11.7164 25.6661 11.2251 25.4166L8.75781 30.2708V30.2704Z" fill="black"/>
<path d="M10.6913 25.2283L13.4096 20.5105C13.0159 20.2837 12.653 20.0058 12.3301 19.6842L4.70605 27.3342C5.29745 27.9236 5.93988 28.4708 6.61552 28.961L9.76002 24.6243C10.0598 24.8415 10.37 25.0436 10.6909 25.2287L10.6913 25.2283Z" fill="black"/>
<path d="M25.2248 21.314L20.5082 18.5928C20.2814 18.9861 20.0027 19.3494 19.6807 19.6727L27.327 27.3C27.9168 26.7086 28.4645 26.0666 28.9546 25.3913L24.6196 22.2448C24.8367 21.9455 25.0392 21.6352 25.2244 21.3144L25.2248 21.314Z" fill="black"/>
<path d="M14.6608 21.0261L13.2642 26.289C13.6214 26.3838 13.9836 26.4588 14.3493 26.5159L13.527 31.8096C14.34 31.936 15.172 32 16.0004 32H16.0129V21.1994H16.0004C15.5451 21.1994 15.0946 21.1411 14.6612 21.0261H14.6608Z" fill="black"/>
<path d="M21.1991 16.0002C21.1991 16.4563 21.1403 16.9075 21.0249 17.3418L26.2871 18.7421C26.3823 18.3848 26.4576 18.0227 26.5147 17.6569L31.8081 18.4824C31.9353 17.6666 31.9997 16.8314 31.9997 16.0006H21.1991V16.0002Z" fill="black"/>
</svg>
