<svg width="155" height="40" viewBox="0 0 155 40" fill="none" xmlns="http://www.w3.org/2000/svg">
<path d="M19.8812 40L19.8839 33.1936C19.1978 33.1936 18.5064 33.1389 17.8296 33.0308L16.7733 39.7544C17.7978 39.9173 18.8435 40 19.8825 40H19.8812ZM22.9891 39.7571C24.0162 39.5943 25.0366 39.3501 26.0239 39.0284L23.9405 32.5531C23.2903 32.7652 22.6162 32.9267 21.9381 33.0335L22.9891 39.7571ZM13.7371 39.0244L15.8259 32.5504C15.1743 32.3382 14.536 32.0713 13.9269 31.759L10.8509 37.822C11.7758 38.2971 12.7472 38.7015 13.7371 39.0244ZM28.9089 37.83C29.8351 37.3562 30.7308 36.8037 31.5722 36.1884L27.5898 30.6846C27.0364 31.0904 26.4472 31.4534 25.8381 31.7643L28.9089 37.83ZM8.18891 36.1778L12.1752 30.6766C11.6245 30.2736 11.099 29.8198 10.6107 29.33L5.82152 34.1399L5.8255 34.1439C6.56067 34.8832 7.35554 35.5679 8.18891 36.1778ZM33.9077 34.1852L33.9488 34.1425C34.6813 33.4058 35.3608 32.6078 35.9685 31.771L30.4999 27.7606C30.0992 28.3131 29.6493 28.8416 29.1636 29.3314L29.096 29.4008L31.397 31.5855L33.9077 34.1852ZM3.7965 31.7576L9.26777 27.7512C8.86435 27.1947 8.50341 26.6022 8.19289 25.9896L2.16295 29.0791C2.63404 30.0093 3.18342 30.9102 3.7965 31.7563V31.7576ZM37.6048 29.0925C38.0772 28.1623 38.4793 27.1854 38.8017 26.1898L32.3644 24.0878C32.1534 24.7431 31.888 25.385 31.5775 25.9976L37.6048 29.0925ZM0.969967 26.1751L7.40862 24.0785C7.19763 23.4245 7.03706 22.7466 6.92957 22.0646L0.244091 23.1243C0.405987 24.1572 0.650158 25.1835 0.969967 26.1764V26.1751ZM39.5289 23.1389C39.6908 22.1086 39.7731 21.057 39.7744 20.0133L33.0067 20.0093C33.0067 20.6993 32.9523 21.3946 32.8448 22.0766L39.5289 23.1389ZM6.769 19.9987C6.769 19.3087 6.82341 18.612 6.92957 17.9314L0.244091 16.8717C0.0821953 17.902 0.00124741 18.9537 -8.01086e-05 19.9973H6.76768L6.769 19.9987ZM32.8474 17.9421L39.5329 16.8864C39.3723 15.8535 39.1282 14.8272 38.8097 13.8342L32.3697 15.9269C32.5807 16.5821 32.7413 17.2588 32.8474 17.9407V17.9421ZM7.40862 15.9189C7.61962 15.2636 7.88502 14.6203 8.19421 14.0077L2.16428 10.9169C1.69319 11.8471 1.2911 12.824 0.969967 13.8196L7.4073 15.9189H7.40862ZM31.5854 14.0171L37.618 10.9315C37.1469 10 36.5976 9.09916 35.9858 8.25304L30.5119 12.2568C30.914 12.8133 31.2749 13.4058 31.5854 14.0184V14.0171ZM9.27042 12.2461C9.6725 11.6909 10.1237 11.1597 10.612 10.67L10.6253 10.6566L5.8401 5.84412L5.82682 5.85747C5.09166 6.59682 4.40958 7.39891 3.80048 8.23836L9.27042 12.2461ZM29.1875 10.694L30.6326 9.21126L33.9595 5.86681L33.9488 5.85613C33.2177 5.12078 32.4254 4.43881 31.5947 3.82891L27.6057 9.32737C28.1551 9.73042 28.6793 10.1815 29.1636 10.67L29.1875 10.694ZM12.1912 9.31269C12.7445 8.90831 13.3337 8.54531 13.9428 8.23435L10.8761 2.16736C9.94985 2.64113 9.05412 3.19231 8.21279 3.80755L12.1912 9.31269ZM25.8554 8.24503L28.9354 2.18471C28.0105 1.7096 27.0404 1.30388 26.0505 0.980916L23.9578 7.45362C24.6093 7.66716 25.2476 7.93274 25.8567 8.24636L25.8554 8.24503ZM15.8431 7.44562C16.4947 7.23475 17.1688 7.07327 17.8456 6.9665L16.7986 0.241559C15.7728 0.403043 14.751 0.647271 13.7637 0.968904L15.8431 7.44562ZM21.9553 6.97051L23.0143 0.246897C21.9898 0.0840785 20.9441 0 19.9064 0L19.8998 6.80635C20.5858 6.80635 21.2772 6.86241 21.9553 6.97051Z" fill="black"/>
<path d="M19.8849 33.4941V26.6534C19.3132 26.6534 18.7429 26.5783 18.1914 26.4321L16.4253 33.0407C17.5526 33.3412 18.7161 33.4941 19.8849 33.4941ZM23.3445 33.0407C24.4758 32.7389 25.5641 32.2896 26.5759 31.7048L23.1513 25.7815C22.6588 26.0659 22.13 26.2845 21.5798 26.4307L23.3445 33.0407ZM13.1925 31.7034L16.6186 25.7815C16.1274 25.4972 15.6725 25.1471 15.2645 24.7407L15.2015 24.679L13.0396 26.9538L10.3865 29.5385L10.4254 29.5761C11.2548 30.405 12.1861 31.1199 13.1939 31.7034H13.1925ZM29.3444 29.5788H29.3458C30.1737 28.7485 30.889 27.819 31.4714 26.813L25.548 23.3873C25.2635 23.8782 24.9132 24.3329 24.5066 24.7394L29.3444 29.5788ZM8.29036 26.7983L14.2192 23.3806C13.9347 22.8883 13.7173 22.3599 13.571 21.8086L6.95645 23.5671C7.25705 24.6978 7.70661 25.7856 8.29036 26.7983ZM32.8107 23.5845C33.1113 22.4578 33.2643 21.2949 33.2656 20.1266L26.4216 20.1239C26.4216 20.6967 26.3465 21.2667 26.1989 21.818L32.8107 23.5845ZM13.3509 20.1159C13.3509 19.5431 13.4261 18.9731 13.575 18.4218L6.9645 16.6513C6.66256 17.778 6.50823 18.9409 6.50823 20.1092L13.3522 20.1159H13.3509ZM26.2002 18.4298L32.8134 16.6687C32.5114 15.538 32.0619 14.4502 31.4781 13.4388L25.5507 16.8592C25.8352 17.3514 26.0539 17.8799 26.2002 18.4298ZM14.2259 16.8511C14.5063 16.3669 14.8526 15.9176 15.2525 15.5152L15.2699 15.4978L12.8222 13.0512L10.4684 10.6248L10.4254 10.6664C9.59877 11.4926 8.88485 12.4195 8.30378 13.4228L14.2259 16.8511ZM12.8222 13.0499L12.8504 13.078L12.8222 13.0499ZM24.5107 15.5058L26.9342 13.0834L29.4075 10.7281L29.3458 10.665C28.5191 9.83878 27.5891 9.12386 26.584 8.54174L23.1553 14.4623C23.6397 14.7426 24.0906 15.0887 24.4932 15.4884L24.5107 15.5058ZM16.6226 14.4582C17.1138 14.1739 17.6425 13.9566 18.194 13.809L16.4334 7.19909C15.3008 7.50088 14.2138 7.94888 13.2006 8.53369L16.6226 14.4582ZM21.5838 13.8117L23.3539 7.20311C22.2266 6.90132 21.0632 6.74841 19.8943 6.74707L19.8903 13.5877C20.4633 13.5877 21.0336 13.6628 21.5852 13.8104L21.5838 13.8117Z" fill="black"/>
<path fill-rule="evenodd" clip-rule="evenodd" d="M76.543 4.49414V17.2879H73.7696V7.26647H72.9717L68.5428 17.2879H65.5105L71.1652 4.49414L71.1652 4.49415L73.7696 4.49414H76.543ZM59.8559 4.49414L65.5105 17.2879H62.4788L58.0494 7.26647H57.2519V17.2879H54.4785V7.26647V4.49416V4.49415H59.8558L59.8559 4.49414ZM108.263 17.2879H111.036V4.49414H108.263V17.2879ZM84.3172 10.3468L85.6786 7.26647H87.1389L88.5004 10.3468H84.3172ZM81.2496 17.2879L83.092 13.1192H89.7257L91.5682 17.2879H94.6L88.9458 4.49414L88.9457 4.49415L83.8721 4.49414L83.8719 4.49415V4.49442L78.2174 17.2879H81.2496ZM98.9763 7.26647V17.2879H96.2029V7.26647V4.49414H98.9763L102.607 4.49415V4.49434L102.608 4.49414L108.262 17.2879H105.23L100.801 7.26647H98.9763ZM121.564 7.26647V17.2879H118.791V7.26647H112.576V4.49415L118.791 4.49414H121.564L127.779 4.49415V7.26647H121.564ZM129.319 4.49414H132.093V14.5156H140.876V17.2879L132.093 17.2879H129.319V4.49414ZM145.189 12.0924V14.5156H155V17.2879L145.189 17.2879H142.416V12.0924V9.32004V7.26647V4.49414H145.189L154.999 4.49415V7.26647H145.189V9.32004H154.139V12.0924H145.189Z" fill="black"/>
<path opacity="0.3" d="M54 22H154.5" stroke="black" stroke-width="0.5"/>
<path opacity="0.8" d="M61.792 30.504C61.792 31.16 61.628 31.732 61.3 32.22C60.972 32.708 60.528 33.048 59.968 33.24L61.672 36H60.424L58.804 33.396H57.052V36H55.96V27.6H58.972C59.796 27.6 60.472 27.872 61 28.416C61.528 28.96 61.792 29.656 61.792 30.504ZM57.052 28.584V32.412H58.912C59.432 32.412 59.86 32.232 60.196 31.872C60.532 31.512 60.7 31.056 60.7 30.504C60.7 29.944 60.532 29.484 60.196 29.124C59.86 28.764 59.432 28.584 58.912 28.584H57.052ZM65.1573 36V27.6H66.2493V36H65.1573ZM70.0891 36V27.6H71.2531L75.0331 34.176V27.6H76.0771V36H74.9251L71.1451 29.424V36H70.0891ZM88.6432 31.92V32.904H87.7192C87.5352 33.92 87.0992 34.724 86.4112 35.316C85.7232 35.9 84.8272 36.192 83.7232 36.192C82.4112 36.192 81.3632 35.78 80.5792 34.956C79.7952 34.132 79.4072 33.096 79.4152 31.848C79.4152 30.592 79.7992 29.54 80.5672 28.692C81.3432 27.836 82.4152 27.408 83.7832 27.408C84.7512 27.408 85.5672 27.652 86.2312 28.14C86.8952 28.628 87.2832 29.248 87.3952 30H86.1952C86.0752 29.52 85.7992 29.132 85.3672 28.836C84.9432 28.54 84.4152 28.392 83.7832 28.392C82.7432 28.392 81.9432 28.716 81.3832 29.364C80.8312 30.012 80.5552 30.84 80.5552 31.848C80.5552 32.808 80.8392 33.608 81.4072 34.248C81.9832 34.888 82.7552 35.208 83.7232 35.208C84.5072 35.208 85.1392 35.012 85.6192 34.62C86.1072 34.22 86.4272 33.648 86.5792 32.904H84.5392V31.92H88.6432ZM93.1817 36L90.3137 27.6H91.4657L93.6137 34.2L95.6177 27.6H96.4457L98.4377 34.2L100.598 27.6H101.75L98.8697 36H98.0657L96.0257 29.496L93.9977 36H93.1817ZM111.204 34.92C110.42 35.768 109.372 36.192 108.06 36.192C106.748 36.192 105.696 35.768 104.904 34.92C104.12 34.072 103.728 33.032 103.728 31.8C103.728 30.568 104.12 29.528 104.904 28.68C105.696 27.832 106.748 27.408 108.06 27.408C109.372 27.408 110.42 27.832 111.204 28.68C111.996 29.528 112.392 30.568 112.392 31.8C112.392 33.032 111.996 34.072 111.204 34.92ZM105.732 34.224C106.308 34.88 107.084 35.208 108.06 35.208C109.036 35.208 109.812 34.88 110.388 34.224C110.964 33.568 111.248 32.76 111.24 31.8C111.248 30.84 110.964 30.032 110.388 29.376C109.812 28.72 109.036 28.392 108.06 28.392C107.084 28.392 106.308 28.72 105.732 29.376C105.156 30.032 104.868 30.84 104.868 31.8C104.868 32.76 105.156 33.568 105.732 34.224ZM122.686 34.92C121.902 35.768 120.854 36.192 119.542 36.192C118.23 36.192 117.178 35.768 116.386 34.92C115.602 34.072 115.21 33.032 115.21 31.8C115.21 30.568 115.602 29.528 116.386 28.68C117.178 27.832 118.23 27.408 119.542 27.408C120.854 27.408 121.902 27.832 122.686 28.68C123.478 29.528 123.874 30.568 123.874 31.8C123.874 33.032 123.478 34.072 122.686 34.92ZM117.214 34.224C117.79 34.88 118.566 35.208 119.542 35.208C120.518 35.208 121.294 34.88 121.87 34.224C122.446 33.568 122.73 32.76 122.722 31.8C122.73 30.84 122.446 30.032 121.87 29.376C121.294 28.72 120.518 28.392 119.542 28.392C118.566 28.392 117.79 28.72 117.214 29.376C116.638 30.032 116.35 30.84 116.35 31.8C116.35 32.76 116.638 33.568 117.214 34.224ZM127.197 36V27.6H129.873C131.201 27.6 132.245 28.012 133.005 28.836C133.765 29.66 134.145 30.648 134.145 31.8C134.145 32.952 133.765 33.94 133.005 34.764C132.245 35.588 131.201 36 129.873 36H127.197ZM128.289 35.016H129.789C130.821 35.016 131.617 34.7 132.177 34.068C132.737 33.436 133.017 32.68 133.017 31.8C133.017 30.912 132.737 30.156 132.177 29.532C131.617 28.9 130.821 28.584 129.789 28.584H128.289V35.016Z" fill="black"/>
</svg>
