<svg width="89" height="89" viewBox="0 0 89 89" fill="none" xmlns="http://www.w3.org/2000/svg">
<path d="M6.96187 22.8274L44.5 1.1547L82.0381 22.8274V66.1726L44.5 87.8453L6.96187 66.1726V22.8274Z" stroke="url(#paint0_linear_643_30719)" stroke-width="2"/>
<path fill-rule="evenodd" clip-rule="evenodd" d="M24.9127 41.4298L26.9897 45.7698L30.0169 51H33V53H31.1745L32.9107 55.9998H38.0567V38H41V37H38.0567V34.3618H33.6237V36H35V38H33.6237V48.9318H33.5307L31.4537 44.5918L29.9536 42H31V39H28.2172L25.5327 34.3618H20.3867V39H23V41H20.3867V55.9998H24.8197V41.4298H24.9127ZM42.8193 34.3618V50H46V51V52H42.8193V55.9998H47.5313V52H50V51H47.5313V47.1338H55.7463V42.9798H47.5313V38.5468H57.1723V34.3618H42.8193ZM69.9741 53V55.9998H65.2621V54H66V52H65.2621V42H64V40H65.2621V38.5468H59.4031V34.3618H75.8331V38.5468H69.9741V43H72V45H69.9741V52H74V53H69.9741ZM19 40H14V43H19V40ZM73 43H75V45H73V43Z" fill="#FF8FD9"/>
<path fill-rule="evenodd" clip-rule="evenodd" d="M22.9127 41.4298L24.9897 45.7698L28.0169 51H31V53H29.1745L30.9107 55.9998H36.0567V38H39V37H36.0567V34.3618H31.6237V36H33V38H31.6237V48.9318H31.5307L29.4537 44.5918L27.9536 42H29V39H26.2172L23.5327 34.3618H18.3867V39H21V41H18.3867V55.9998H22.8197V41.4298H22.9127ZM40.8193 34.3618V50H44V51V52H40.8193V55.9998H45.5313V52H48V51H45.5313V47.1338H53.7463V42.9798H45.5313V38.5468H55.1723V34.3618H40.8193ZM67.9741 53V55.9998H63.2621V54H64V52H63.2621V42H62V40H63.2621V38.5468H57.4031V34.3618H73.8331V38.5468H67.9741V43H70V45H67.9741V52H72V53H67.9741ZM17 40H12V43H17V40ZM71 43H73V45H71V43Z" fill="#4DF4FF"/>
<path fill-rule="evenodd" clip-rule="evenodd" d="M23.9127 41.4298L25.9897 45.7698L29.0169 51H32V53H30.1745L31.9107 55.9998H37.0567V38H40V37H37.0567V34.3618H32.6237V36H34V38H32.6237V48.9318H32.5307L30.4537 44.5918L28.9536 42H30V39H27.2172L24.5327 34.3618H19.3867V39H22V41H19.3867V55.9998H23.8197V41.4298H23.9127ZM41.8193 34.3618V50H45V51V52H41.8193V55.9998H46.5313V52H49V51H46.5313V47.1338H54.7463V42.9798H46.5313V38.5468H56.1723V34.3618H41.8193ZM68.9741 53V55.9998H64.2621V54H65V52H64.2621V42H63V40H64.2621V38.5468H58.4031V34.3618H74.8331V38.5468H68.9741V43H71V45H68.9741V52H73V53H68.9741ZM18 40H13V43H18V40ZM72 43H74V45H72V43Z" fill="#406FE7"/>
<defs>
<linearGradient id="paint0_linear_643_30719" x1="24" y1="7.5" x2="44.5" y2="89" gradientUnits="userSpaceOnUse">
<stop stop-color="#4DFFF4"/>
<stop offset="0.479167" stop-color="#2D68FF"/>
<stop offset="1" stop-color="#27F2FF"/>
</linearGradient>
</defs>
</svg>
